<svg width="61" height="61" viewBox="0 0 61 61" fill="none" xmlns="http://www.w3.org/2000/svg">
<g clip-path="url(#clip0_7_64)">
<path d="M0 10C0 7.79086 1.79086 6 4 6H51C53.2091 6 55 7.79086 55 10V57C55 59.2091 53.2091 61 51 61H4C1.79086 61 0 59.2091 0 57V10Z" fill="#35B8BE"/>
<g opacity="0.2">
<path opacity="0.2" fill-rule="evenodd" clip-rule="evenodd" d="M-0.717271 -46.2939C0.923516 -42.8601 1.21108 -35.6773 1.89649 -29.7098C2.53415 -24.1585 3.18075 -18.751 3.12659 -12.8311C3.06405 -5.85713 3.26926 2.74212 1.56844 6.9157C-0.144653 11.1214 -2.56353 6.11553 -4.7063 6.39694C-6.64498 6.64994 -8.74001 12.0547 -10.3479 8.476C-11.9727 4.857 -11.1969 -3.64431 -11.9085 -9.64114C-12.5649 -15.1714 -14.5022 -19.1919 -14.331 -25.0898C-14.1574 -31.0756 -12.4487 -35.099 -11.057 -39.0058C-9.69846 -42.8173 -8.20564 -45.9558 -6.45541 -47.1887C-4.53823 -48.5408 -2.37397 -49.7599 -0.717271 -46.2939Z" stroke="white"/>
<path opacity="0.2" fill-rule="evenodd" clip-rule="evenodd" d="M0.295392 -53.2286C2.3357 -48.9588 2.69389 -40.0288 3.54681 -32.6166C4.34054 -25.7141 5.14377 -18.9957 5.07872 -11.6358C5.00194 -2.97237 5.25823 7.71332 3.14422 12.8998C1.01485 18.1248 -1.99283 11.8986 -4.65656 12.2414C-7.06679 12.5549 -9.67051 19.2686 -11.67 14.8182C-13.6908 10.3201 -12.7273 -0.24448 -13.6129 -7.69698C-14.4295 -14.572 -16.8386 -19.5704 -16.6281 -26.8973C-16.4132 -34.3342 -14.2894 -39.3336 -12.5598 -44.1855C-10.8716 -48.9201 -9.01609 -52.819 -6.8401 -54.349C-4.45556 -56.0274 -1.76501 -57.5406 0.295392 -53.2286Z" stroke="white"/>
<path opacity="0.2" fill-rule="evenodd" clip-rule="evenodd" d="M1.23679 -59.6647C3.64813 -54.623 4.07249 -44.0741 5.08092 -35.3117C6.01927 -27.1589 6.96907 -19.2204 6.89257 -10.5286C6.80268 -0.293989 7.10643 12.3332 4.60882 18.4556C2.09306 24.6248 -1.46185 17.2685 -4.60913 17.6746C-7.45685 18.0413 -10.5332 25.9687 -12.8963 20.7079C-15.2844 15.3912 -14.1467 2.91529 -15.194 -5.88929C-16.1594 -14.01 -19.0066 -19.9198 -18.757 -28.575C-18.5037 -37.3631 -15.9944 -43.2672 -13.951 -48.9955C-11.9565 -54.5871 -9.76321 -59.1909 -7.19329 -60.9976C-4.37852 -62.9739 -1.1994 -64.7586 1.23679 -59.6647Z" stroke="white"/>
<path opacity="0.2" fill-rule="evenodd" clip-rule="evenodd" d="M2.21172 -66.3498C5.00806 -60.4996 5.50083 -48.2719 6.6709 -38.1162C7.75973 -28.6644 8.86112 -19.4591 8.77318 -9.38039C8.67016 2.4877 9.02446 17.1257 6.12704 24.2234C3.21009 31.3734 -0.912954 22.842 -4.56278 23.3067C-7.86557 23.7284 -11.4322 32.9208 -14.1727 26.8194C-16.9422 20.6549 -15.6245 6.18888 -16.8387 -4.02004C-17.9588 -13.4351 -21.261 -20.2888 -20.9706 -30.3281C-20.6775 -40.5141 -17.7678 -47.36 -15.3986 -54.0003C-13.0858 -60.4811 -10.5441 -65.8178 -7.56266 -67.9097C-4.29867 -70.1903 -0.612265 -72.2595 2.21172 -66.3498Z" stroke="white"/>
<path opacity="0.2" fill-rule="evenodd" clip-rule="evenodd" d="M3.40494 -74.5214C6.67144 -67.684 7.24852 -53.4016 8.6157 -41.5353C9.88824 -30.4931 11.1759 -19.7418 11.0726 -7.97C10.9525 5.89091 11.3657 22.9898 7.9825 31.2811C4.57641 39.6291 -0.241815 29.6619 -4.50557 30.2055C-8.36423 30.6968 -12.5305 41.4294 -15.7325 34.3032C-18.9686 27.1009 -17.4292 10.2042 -18.8488 -1.72163C-20.158 -12.7216 -24.016 -20.725 -23.6788 -32.4492C-23.3368 -44.3466 -19.9377 -52.341 -17.1706 -60.0951C-14.4692 -67.665 -11.5001 -73.8948 -8.01692 -76.3387C-4.20098 -79.0117 0.105778 -81.4239 3.40494 -74.5214Z" stroke="white"/>
<path opacity="0.2" fill-rule="evenodd" clip-rule="evenodd" d="M4.70682 -83.4343C8.48786 -75.5253 9.1554 -58.9989 10.7373 -45.2691C12.21 -32.4926 13.7006 -20.0514 13.583 -6.43248C13.4434 9.6046 13.9234 29.386 10.0094 38.9743C6.0673 48.6323 0.492766 37.098 -4.44104 37.7269C-8.90581 38.2924 -13.7263 50.7096 -17.4317 42.4624C-21.1764 34.129 -19.396 14.5808 -21.0393 0.781344C-22.5548 -11.9429 -27.0192 -21.2083 -26.6301 -34.7695C-26.2347 -48.5369 -22.3026 -57.7779 -19.1006 -66.753C-15.9737 -75.509 -12.5397 -82.7159 -8.50937 -85.5393C-4.09458 -88.6339 0.888651 -91.423 4.70682 -83.4343Z" stroke="white"/>
<path opacity="0.2" fill-rule="evenodd" clip-rule="evenodd" d="M5.97234 -92.1026C10.2528 -83.1468 11.0089 -64.4414 12.801 -48.9002C14.4689 -34.4389 16.1566 -20.3561 16.0239 -4.93962C15.8676 13.2104 16.4101 35.6021 11.9802 46.4555C7.51765 57.3849 1.20689 44.3258 -4.37827 45.0344C-9.43157 45.676 -14.8889 59.7269 -19.0837 50.3916C-23.3231 40.9563 -21.3082 18.8305 -23.169 3.21146C-24.8849 -11.1903 -29.939 -21.6796 -29.499 -37.0301C-29.0523 -52.6134 -24.6012 -63.0733 -20.9768 -73.2273C-17.439 -83.1383 -13.5504 -91.2941 -8.98794 -94.4887C-3.99104 -97.9886 1.64995 -101.146 5.97234 -92.1026Z" stroke="white"/>
<path opacity="0.2" fill-rule="evenodd" clip-rule="evenodd" d="M7.12962 -100.027C11.8669 -90.1178 12.7039 -69.4195 14.6875 -52.2247C16.5332 -36.2215 18.4007 -20.6401 18.2547 -3.5809C18.0822 16.5033 18.683 41.2817 13.781 53.2891C8.84271 65.3836 1.85967 50.9326 -4.32183 51.7154C-9.9148 52.4212 -15.9525 67.9706 -20.5949 57.6379C-25.2852 47.1953 -23.0573 22.7128 -25.1177 5.4318C-27.0162 -10.5072 -32.6103 -22.1141 -32.1234 -39.0999C-31.6292 -56.3415 -26.704 -67.9171 -22.6932 -79.1517C-18.7785 -90.1169 -14.4753 -99.1352 -9.42678 -102.674C-3.89635 -106.543 2.34518 -110.033 7.12962 -100.027Z" stroke="white"/>
<path opacity="0.2" fill-rule="evenodd" clip-rule="evenodd" d="M8.35913 -108.445C13.5816 -97.5193 14.5046 -74.706 16.6918 -55.7484C18.7271 -38.1062 20.7863 -20.9306 20.625 -2.12338C20.4354 20.0123 21.0996 47.3251 15.6942 60.56C10.2501 73.8901 2.55203 57.9604 -4.26127 58.8184C-10.4269 59.5985 -17.0821 76.7348 -22.2002 65.3443C-27.3724 53.8328 -24.9156 26.844 -27.1862 7.79748C-29.2801 -9.77043 -35.4463 -22.566 -34.91 -41.2898C-34.3655 -60.296 -28.9353 -73.0543 -24.5152 -85.4384C-20.1998 -97.5256 -15.4564 -107.47 -9.8911 -111.364C-3.79531 -115.63 3.08583 -119.478 8.35913 -108.445Z" stroke="white"/>
<path opacity="0.2" fill-rule="evenodd" clip-rule="evenodd" d="M9.69645 -117.606C15.4477 -105.574 16.464 -80.458 18.8722 -59.5809C21.1133 -40.1595 23.3811 -21.2478 23.2041 -0.54764C22.9956 23.8256 23.7259 53.8969 17.7761 68.4673C11.7831 83.1432 3.30556 65.6039 -4.19594 66.549C-10.9847 67.4042 -18.3125 86.272 -23.9476 73.7292C-29.6431 61.0554 -26.938 31.3461 -29.4384 10.3691C-31.7442 -8.97256 -38.5338 -23.0653 -37.9436 -43.6784C-37.3445 -64.6013 -31.3668 -78.6483 -26.4991 -92.281C-21.7479 -105.588 -16.5254 -116.535 -10.3975 -120.823C-3.68642 -125.52 3.88935 -129.757 9.69645 -117.606Z" stroke="white"/>
</g>
</g>
<g clip-path="url(#clip1_7_64)">
<path d="M16.8322 27H13V25H19.4619L20.1219 29H36.5294V34.9384L18.5432 37.3694L16.8322 27ZM35.7941 42C34.5758 42 33.5882 41.3284 33.5882 40.5C33.5882 39.6716 34.5758 39 35.7941 39C37.0124 39 38 39.6716 38 40.5C38 41.3284 37.0124 42 35.7941 42ZM21.0882 42C19.87 42 18.8824 41.3284 18.8824 40.5C18.8824 39.6716 19.87 39 21.0882 39C22.3065 39 23.2941 39.6716 23.2941 40.5C23.2941 41.3284 22.3065 42 21.0882 42Z" fill="white"/>
</g>
<circle cx="48.5" cy="12.5" r="12.5" fill="white"/>
<path d="M48.5 17.1293C47.8045 17.1293 47.212 16.94 46.7227 16.5614C46.2333 16.1798 45.8594 15.6274 45.6009 14.9041C45.3423 14.1778 45.2131 13.3007 45.2131 12.2727C45.2131 11.2509 45.3423 10.3784 45.6009 9.65518C45.8625 8.92886 46.2379 8.37488 46.7273 7.99325C47.2197 7.60855 47.8106 7.41619 48.5 7.41619C49.1894 7.41619 49.7788 7.60855 50.2681 7.99325C50.7605 8.37488 51.136 8.92886 51.3945 9.65518C51.6561 10.3784 51.7869 11.2509 51.7869 12.2727C51.7869 13.3007 51.6577 14.1778 51.3991 14.9041C51.1406 15.6274 50.7667 16.1798 50.2773 16.5614C49.788 16.94 49.1955 17.1293 48.5 17.1293ZM48.5 16.1136C49.1894 16.1136 49.7249 15.7812 50.1065 15.1165C50.4882 14.4517 50.679 13.5038 50.679 12.2727C50.679 11.4541 50.5913 10.757 50.4158 10.1815C50.2435 9.60594 49.9942 9.16738 49.668 8.86577C49.3448 8.56416 48.9555 8.41335 48.5 8.41335C47.8168 8.41335 47.2828 8.75035 46.8981 9.42436C46.5134 10.0953 46.321 11.0447 46.321 12.2727C46.321 13.0914 46.4072 13.7869 46.5795 14.3594C46.7519 14.9318 46.9996 15.3673 47.3228 15.6658C47.649 15.9644 48.0414 16.1136 48.5 16.1136Z" fill="#35B8BE"/>
<defs>
<clipPath id="clip0_7_64">
<path d="M0 10C0 7.79086 1.79086 6 4 6H51C53.2091 6 55 7.79086 55 10V57C55 59.2091 53.2091 61 51 61H4C1.79086 61 0 59.2091 0 57V10Z" fill="white"/>
</clipPath>
<clipPath id="clip1_7_64">
<rect width="25" height="17" fill="white" transform="translate(13 25)"/>
</clipPath>
</defs>
</svg>
