<svg width="55" height="55" viewBox="0 0 55 55" fill="none" xmlns="http://www.w3.org/2000/svg">
<g clip-path="url(#clip0_7_36)">
<path d="M0 4C0 1.79086 1.79086 0 4 0H51C53.2091 0 55 1.79086 55 4V51C55 53.2091 53.2091 55 51 55H4C1.79086 55 0 53.2091 0 51V4Z" fill="#35B8BE"/>
<g opacity="0.2">
<path opacity="0.2" fill-rule="evenodd" clip-rule="evenodd" d="M-0.717271 -52.2939C0.923516 -48.8601 1.21108 -41.6773 1.89649 -35.7098C2.53415 -30.1585 3.18075 -24.751 3.12659 -18.8311C3.06405 -11.8571 3.26926 -3.25788 1.56844 0.9157C-0.144653 5.12137 -2.56353 0.115525 -4.7063 0.396942C-6.64498 0.649942 -8.74001 6.05467 -10.3479 2.476C-11.9727 -1.143 -11.1969 -9.64431 -11.9085 -15.6411C-12.5649 -21.1714 -14.5022 -25.1919 -14.331 -31.0898C-14.1574 -37.0756 -12.4487 -41.099 -11.057 -45.0058C-9.69846 -48.8173 -8.20564 -51.9558 -6.45541 -53.1887C-4.53823 -54.5408 -2.37397 -55.7599 -0.717271 -52.2939Z" stroke="white"/>
<path opacity="0.2" fill-rule="evenodd" clip-rule="evenodd" d="M0.295392 -59.2286C2.3357 -54.9588 2.69389 -46.0288 3.54681 -38.6166C4.34054 -31.7141 5.14377 -24.9957 5.07872 -17.6358C5.00194 -8.97237 5.25823 1.71332 3.14422 6.89982C1.01485 12.1248 -1.99283 5.89858 -4.65656 6.24141C-7.06679 6.55491 -9.67051 13.2686 -11.67 8.81819C-13.6908 4.32011 -12.7273 -6.24448 -13.6129 -13.697C-14.4295 -20.572 -16.8386 -25.5704 -16.6281 -32.8973C-16.4132 -40.3342 -14.2894 -45.3336 -12.5598 -50.1855C-10.8716 -54.9201 -9.01609 -58.819 -6.8401 -60.349C-4.45556 -62.0274 -1.76501 -63.5406 0.295392 -59.2286Z" stroke="white"/>
<path opacity="0.2" fill-rule="evenodd" clip-rule="evenodd" d="M1.23679 -65.6647C3.64813 -60.623 4.07249 -50.0741 5.08092 -41.3117C6.01927 -33.1589 6.96907 -25.2204 6.89257 -16.5286C6.80268 -6.29399 7.10643 6.33322 4.60882 12.4556C2.09306 18.6248 -1.46185 11.2685 -4.60913 11.6746C-7.45685 12.0413 -10.5332 19.9687 -12.8963 14.7079C-15.2844 9.39125 -14.1467 -3.08471 -15.194 -11.8893C-16.1594 -20.01 -19.0066 -25.9198 -18.757 -34.575C-18.5037 -43.3631 -15.9944 -49.2672 -13.951 -54.9955C-11.9565 -60.5871 -9.76321 -65.1909 -7.19329 -66.9976C-4.37852 -68.9739 -1.1994 -70.7586 1.23679 -65.6647Z" stroke="white"/>
<path opacity="0.2" fill-rule="evenodd" clip-rule="evenodd" d="M2.21172 -72.3498C5.00806 -66.4996 5.50083 -54.2719 6.6709 -44.1162C7.75973 -34.6644 8.86112 -25.4591 8.77318 -15.3804C8.67016 -3.5123 9.02446 11.1257 6.12704 18.2234C3.21009 25.3734 -0.912954 16.842 -4.56278 17.3067C-7.86557 17.7284 -11.4322 26.9208 -14.1727 20.8194C-16.9422 14.6549 -15.6245 0.188882 -16.8387 -10.02C-17.9588 -19.4351 -21.261 -26.2888 -20.9706 -36.3281C-20.6775 -46.5141 -17.7678 -53.36 -15.3986 -60.0003C-13.0858 -66.4811 -10.5441 -71.8178 -7.56266 -73.9097C-4.29867 -76.1903 -0.612265 -78.2595 2.21172 -72.3498Z" stroke="white"/>
<path opacity="0.2" fill-rule="evenodd" clip-rule="evenodd" d="M3.40494 -80.5214C6.67144 -73.684 7.24852 -59.4016 8.6157 -47.5353C9.88824 -36.4931 11.1759 -25.7418 11.0726 -13.97C10.9525 -0.109089 11.3657 16.9898 7.9825 25.2811C4.57641 33.6291 -0.241815 23.6619 -4.50557 24.2055C-8.36423 24.6968 -12.5305 35.4294 -15.7325 28.3032C-18.9686 21.1009 -17.4292 4.2042 -18.8488 -7.72163C-20.158 -18.7216 -24.016 -26.725 -23.6788 -38.4492C-23.3368 -50.3466 -19.9377 -58.341 -17.1706 -66.0951C-14.4692 -73.665 -11.5001 -79.8948 -8.01692 -82.3387C-4.20098 -85.0117 0.105778 -87.4239 3.40494 -80.5214Z" stroke="white"/>
<path opacity="0.2" fill-rule="evenodd" clip-rule="evenodd" d="M4.70682 -89.4343C8.48786 -81.5253 9.1554 -64.9989 10.7373 -51.2691C12.21 -38.4926 13.7006 -26.0514 13.583 -12.4325C13.4434 3.6046 13.9234 23.386 10.0094 32.9743C6.0673 42.6323 0.492766 31.098 -4.44104 31.7269C-8.90581 32.2924 -13.7263 44.7096 -17.4317 36.4624C-21.1764 28.129 -19.396 8.58084 -21.0393 -5.21866C-22.5548 -17.9429 -27.0192 -27.2083 -26.6301 -40.7695C-26.2347 -54.5369 -22.3026 -63.7779 -19.1006 -72.753C-15.9737 -81.509 -12.5397 -88.7159 -8.50937 -91.5393C-4.09458 -94.6339 0.888651 -97.423 4.70682 -89.4343Z" stroke="white"/>
<path opacity="0.2" fill-rule="evenodd" clip-rule="evenodd" d="M5.97234 -98.1026C10.2528 -89.1468 11.0089 -70.4414 12.801 -54.9002C14.4689 -40.4389 16.1566 -26.3561 16.0239 -10.9396C15.8676 7.21038 16.4101 29.6021 11.9802 40.4555C7.51765 51.3849 1.20689 38.3258 -4.37827 39.0344C-9.43157 39.676 -14.8889 53.7269 -19.0837 44.3916C-23.3231 34.9563 -21.3082 12.8305 -23.169 -2.78854C-24.8849 -17.1903 -29.939 -27.6796 -29.499 -43.0301C-29.0523 -58.6134 -24.6012 -69.0733 -20.9768 -79.2273C-17.439 -89.1383 -13.5504 -97.2941 -8.98794 -100.489C-3.99104 -103.989 1.64995 -107.146 5.97234 -98.1026Z" stroke="white"/>
<path opacity="0.2" fill-rule="evenodd" clip-rule="evenodd" d="M7.12962 -106.027C11.8669 -96.1178 12.7039 -75.4195 14.6875 -58.2247C16.5332 -42.2215 18.4007 -26.6401 18.2547 -9.5809C18.0822 10.5033 18.683 35.2817 13.781 47.2891C8.84271 59.3836 1.85967 44.9326 -4.32183 45.7154C-9.9148 46.4212 -15.9525 61.9706 -20.5949 51.6379C-25.2852 41.1953 -23.0573 16.7128 -25.1177 -0.568203C-27.0162 -16.5072 -32.6103 -28.1141 -32.1234 -45.0999C-31.6292 -62.3415 -26.704 -73.9171 -22.6932 -85.1517C-18.7785 -96.1169 -14.4753 -105.135 -9.42678 -108.674C-3.89635 -112.543 2.34518 -116.033 7.12962 -106.027Z" stroke="white"/>
<path opacity="0.2" fill-rule="evenodd" clip-rule="evenodd" d="M8.35913 -114.445C13.5816 -103.519 14.5046 -80.706 16.6918 -61.7484C18.7271 -44.1062 20.7863 -26.9306 20.625 -8.12338C20.4354 14.0123 21.0996 41.3251 15.6942 54.56C10.2501 67.8901 2.55203 51.9604 -4.26127 52.8184C-10.4269 53.5985 -17.0821 70.7348 -22.2002 59.3443C-27.3724 47.8328 -24.9156 20.844 -27.1862 1.79748C-29.2801 -15.7704 -35.4463 -28.566 -34.91 -47.2898C-34.3655 -66.296 -28.9353 -79.0543 -24.5152 -91.4384C-20.1998 -103.526 -15.4564 -113.47 -9.8911 -117.364C-3.79531 -121.63 3.08583 -125.478 8.35913 -114.445Z" stroke="white"/>
<path opacity="0.2" fill-rule="evenodd" clip-rule="evenodd" d="M9.69645 -123.606C15.4477 -111.574 16.464 -86.458 18.8722 -65.5809C21.1133 -46.1595 23.3811 -27.2478 23.2041 -6.54764C22.9956 17.8256 23.7259 47.8969 17.7761 62.4673C11.7831 77.1432 3.30556 59.6039 -4.19594 60.549C-10.9847 61.4042 -18.3125 80.272 -23.9476 67.7292C-29.6431 55.0554 -26.938 25.3461 -29.4384 4.36911C-31.7442 -14.9726 -38.5338 -29.0653 -37.9436 -49.6784C-37.3445 -70.6013 -31.3668 -84.6483 -26.4991 -98.281C-21.7479 -111.588 -16.5254 -122.535 -10.3975 -126.823C-3.68642 -131.52 3.88935 -135.757 9.69645 -123.606Z" stroke="white"/>
</g>
</g>
<g clip-path="url(#clip1_7_36)">
<path d="M16.8322 21H13V19H19.4619L20.1219 23H36.5294V28.9384L18.5432 31.3694L16.8322 21ZM35.7941 36C34.5758 36 33.5882 35.3284 33.5882 34.5C33.5882 33.6716 34.5758 33 35.7941 33C37.0124 33 38 33.6716 38 34.5C38 35.3284 37.0124 36 35.7941 36ZM21.0882 36C19.87 36 18.8824 35.3284 18.8824 34.5C18.8824 33.6716 19.87 33 21.0882 33C22.3065 33 23.2941 33.6716 23.2941 34.5C23.2941 35.3284 22.3065 36 21.0882 36Z" fill="white"/>
</g>
<defs>
<clipPath id="clip0_7_36">
<path d="M0 4C0 1.79086 1.79086 0 4 0H51C53.2091 0 55 1.79086 55 4V51C55 53.2091 53.2091 55 51 55H4C1.79086 55 0 53.2091 0 51V4Z" fill="white"/>
</clipPath>
<clipPath id="clip1_7_36">
<rect width="25" height="17" fill="white" transform="translate(13 19)"/>
</clipPath>
</defs>
</svg>
