<svg width="110" height="27" viewBox="0 0 110 27" fill="none" xmlns="http://www.w3.org/2000/svg">
<g clip-path="url(#clip0_38_29)">
<path d="M28.911 9.5678H40.0397V11.6391H35.6532V23.315H33.2516V11.6391H28.8931L28.911 9.5678ZM39.5622 13.3624H41.6159V15.2871H41.6527C41.7318 15.0031 41.8623 14.7359 42.0376 14.4987C42.2247 14.2313 42.4536 13.9958 42.7155 13.801C42.9774 13.5809 43.2752 13.4073 43.5958 13.2877C43.9037 13.1585 44.2339 13.0908 44.5678 13.0883C44.824 13.0883 45.0074 13.1063 45.0991 13.1063C45.1955 13.1275 45.2936 13.1399 45.3922 13.1431V15.2493C45.2351 15.2144 45.076 15.1897 44.9157 15.1755C44.7577 15.1541 44.5986 15.1418 44.4392 15.1386C44.0792 15.1373 43.7231 15.2124 43.3944 15.3589C43.0664 15.5118 42.7733 15.7303 42.533 16.0008C42.2767 16.3182 42.0783 16.6782 41.9468 17.0644C41.7925 17.5375 41.7181 18.033 41.7265 18.5306V23.2602H39.5263L39.5622 13.3624ZM55.4751 23.316H53.3178V21.9205H53.2809C53.0003 22.4304 52.5806 22.85 52.0706 23.1306C51.578 23.4278 51.0141 23.5862 50.4387 23.5891C49.9232 23.6391 49.4029 23.5782 48.9128 23.4106C48.4228 23.243 47.9743 22.9725 47.5974 22.6173C46.9498 21.7831 46.636 20.7377 46.7171 19.6848V13.3604H48.9174V19.4645C48.8461 20.1244 49.0297 20.7866 49.4308 21.3155C49.6124 21.5037 49.8326 21.6504 50.0763 21.7454C50.32 21.8404 50.5813 21.8814 50.8424 21.8657C51.2391 21.8779 51.6335 21.8027 51.9979 21.6454C52.2902 21.5188 52.548 21.324 52.7495 21.0773C52.9509 20.8242 53.0948 20.5303 53.1712 20.2161C53.2624 19.863 53.3056 19.4992 53.2998 19.1346V13.3604H55.5001V23.314L55.4751 23.316ZM59.2156 20.1264C59.2247 20.3938 59.2956 20.6555 59.423 20.8909C59.5503 21.1263 59.7305 21.329 59.9494 21.4829C60.4113 21.749 60.9378 21.8821 61.4707 21.8677C61.7043 21.8656 61.9374 21.8473 62.1685 21.8129C62.4197 21.7822 62.6662 21.7206 62.9023 21.6295C63.1246 21.551 63.3211 21.4131 63.4705 21.2308C63.6227 21.0394 63.6942 20.7963 63.6699 20.553C63.6669 20.4218 63.6378 20.2925 63.5842 20.1727C63.5306 20.0529 63.4537 19.945 63.3579 19.8553C63.1393 19.6692 62.8913 19.5206 62.6241 19.4157C62.2901 19.2955 61.9466 19.2035 61.5973 19.1406C61.2125 19.0668 60.8276 18.9761 60.4239 18.8844C60.0201 18.7927 59.6174 18.6851 59.2276 18.5545C58.8576 18.4371 58.5103 18.2574 58.2007 18.0232C57.8971 17.8049 57.6516 17.5153 57.4859 17.18C57.2905 16.7878 57.1959 16.353 57.2108 15.9151C57.1883 15.431 57.3287 14.9534 57.6096 14.5585C57.873 14.1912 58.218 13.8899 58.6175 13.6784C59.0418 13.4491 59.4997 13.2883 59.9743 13.202C60.4399 13.1162 60.9124 13.0731 61.3859 13.0734C61.8795 13.071 62.3717 13.1265 62.8524 13.2388C63.3035 13.3357 63.7325 13.5158 64.1175 13.7701C64.499 14.0108 64.8192 14.3371 65.0526 14.723C65.3169 15.151 65.4799 15.6338 65.5292 16.1344H63.2362C63.2094 15.9133 63.1307 15.7017 63.0065 15.5169C62.8823 15.332 62.716 15.1792 62.5214 15.0709C62.114 14.8813 61.6687 14.7872 61.2194 14.7958C61.0729 14.7958 60.8715 14.8137 60.6691 14.8326C60.4632 14.8619 60.2605 14.911 60.064 14.9792C59.8859 15.0502 59.7238 15.1563 59.5875 15.2911C59.5206 15.362 59.4686 15.4455 59.4343 15.5367C59.4001 15.6279 59.3844 15.7251 59.3881 15.8224C59.3828 15.9432 59.4048 16.0636 59.4525 16.1747C59.5001 16.2858 59.5721 16.3848 59.6632 16.4643C59.882 16.6456 60.1301 16.7882 60.397 16.8859C60.731 17.0061 61.0745 17.0981 61.4238 17.161C61.8086 17.2348 62.2124 17.3265 62.6201 17.4172C63.0279 17.5079 63.4087 17.6166 63.7935 17.7471C64.1651 17.8607 64.513 18.0407 64.8203 18.2784C65.1203 18.4988 65.3703 18.78 65.5541 19.1037C65.7476 19.4834 65.8423 19.9057 65.8292 20.3317C65.8483 20.8612 65.7095 21.3844 65.4305 21.8348C65.1581 22.2414 64.8019 22.585 64.3857 22.8425C63.9401 23.1019 63.4582 23.2934 62.9561 23.4107C62.4443 23.5249 61.9222 23.5863 61.3979 23.5941C60.8101 23.5989 60.2243 23.5248 59.6562 23.3738C59.1572 23.2426 58.6849 23.0254 58.2606 22.7319C57.8752 22.4476 57.5614 22.0773 57.3444 21.6504C57.1071 21.1714 56.9817 20.6449 56.9775 20.1104H59.1997V20.1284L59.2156 20.1264ZM66.4573 13.3624H68.1252V10.3562H70.3254V13.3465H72.3053V14.9781H70.3254V20.2938C70.3268 20.496 70.3391 20.698 70.3623 20.8989C70.3802 21.0458 70.4238 21.1885 70.4909 21.3205C70.5682 21.434 70.6765 21.5229 70.8029 21.5766C70.9911 21.6427 71.1897 21.6738 71.3891 21.6684C71.5422 21.6715 71.6953 21.6655 71.8477 21.6504C72.0019 21.6348 72.155 21.6102 72.3063 21.5766V23.2811C72.068 23.318 71.8297 23.3359 71.5915 23.3549C71.3545 23.3859 71.1155 23.3982 70.8767 23.3917C70.4058 23.4063 69.9354 23.3505 69.481 23.2263C69.1715 23.1362 68.8883 22.9728 68.6555 22.7498C68.4556 22.5266 68.3181 22.2547 68.2568 21.9614C68.1817 21.6004 68.1386 21.2335 68.1281 20.865V14.9991H66.4603V13.3674L66.4573 13.3624ZM73.8455 13.3624H75.9171V14.719H75.954C76.2291 14.1708 76.6811 13.7314 77.2371 13.4721C77.7991 13.2118 78.4122 13.0803 79.0315 13.0873C79.7397 13.0649 80.4432 13.2093 81.0852 13.5089C81.6528 13.7651 82.1498 14.155 82.5338 14.6452C82.9314 15.1438 83.2244 15.7174 83.3951 16.3317C83.7734 17.6352 83.7862 19.0175 83.432 20.3277C83.2669 20.9247 83.0001 21.4888 82.6434 21.9953C82.2918 22.4777 81.8341 22.8729 81.3055 23.1505C80.7167 23.4544 80.0609 23.6056 79.3984 23.5901C79.0787 23.5868 78.7598 23.5561 78.4453 23.4984C78.1302 23.4431 77.8226 23.3508 77.5292 23.2233C77.2377 23.097 76.966 22.9291 76.7227 22.7249C76.4772 22.529 76.2665 22.2932 76.0996 22.0272H76.0627V26.995H73.8645V13.3624H73.8455ZM81.5269 18.3462C81.5303 17.9056 81.4685 17.4669 81.3434 17.0444C81.238 16.6416 81.0578 16.2622 80.8121 15.9261C80.5807 15.6082 80.2878 15.3401 79.9507 15.1376C79.5852 14.9352 79.1722 14.834 78.7544 14.8446C78.3539 14.8186 77.9532 14.892 77.588 15.0582C77.2227 15.2245 76.9042 15.4784 76.6608 15.7975C76.1654 16.559 75.9213 17.4566 75.963 18.3641C75.9544 18.8358 76.0163 19.3061 76.1464 19.7596C76.2551 20.158 76.4421 20.5308 76.6967 20.856C76.9324 21.1625 77.2331 21.413 77.577 21.5896C77.9465 21.7799 78.3578 21.8745 78.7733 21.8647C79.2155 21.8773 79.6528 21.7695 80.0384 21.5527C80.3752 21.3498 80.668 21.0818 80.8998 20.7643C81.1281 20.4251 81.2898 20.0456 81.3763 19.6459C81.4727 19.2199 81.5245 18.785 81.5308 18.3482L81.5269 18.3462ZM85.3949 9.5658H87.5952V11.637H85.3949V9.5658ZM85.3949 13.3604H87.5952V23.314H85.3949V13.3604ZM89.5561 9.5658H91.7563V23.313H89.5561V9.5658ZM98.4656 23.5881C97.7368 23.6046 97.0126 23.4688 96.3392 23.1894C95.7466 22.9377 95.2104 22.57 94.7621 22.1079C94.3264 21.6251 93.9954 21.0574 93.7901 20.4404C93.5589 19.7616 93.4413 19.0493 93.4421 18.3322C93.4318 17.6193 93.5497 16.9103 93.7901 16.2391C93.9997 15.624 94.3301 15.057 94.7621 14.5715C95.2021 14.0997 95.7405 13.7305 96.3392 13.49C97.0151 13.2193 97.7376 13.0838 98.4656 13.0913C99.1945 13.0748 99.9188 13.2106 100.592 13.49C101.188 13.7351 101.726 14.1037 102.169 14.5715C102.605 15.0543 102.936 15.6221 103.141 16.2391C103.373 16.9126 103.49 17.62 103.489 18.3322C103.501 19.0501 103.383 19.7642 103.141 20.4404C102.924 21.0521 102.595 21.6177 102.169 22.1079C101.729 22.5798 101.191 22.949 100.592 23.1894C99.9175 23.4623 99.1954 23.5985 98.4677 23.5901L98.4656 23.5881ZM98.4656 21.8468C98.9073 21.8548 99.3434 21.7472 99.7308 21.5348C100.082 21.3363 100.383 21.0606 100.611 20.7284C100.848 20.3893 101.022 20.0105 101.124 19.6101C101.344 18.7751 101.344 17.8973 101.124 17.0624C101.025 16.6606 100.851 16.2812 100.611 15.944C100.377 15.6213 100.077 15.3524 99.7308 15.1556C99.3426 14.9453 98.9071 14.8379 98.4656 14.8436C98.024 14.8357 97.5879 14.9432 97.2005 15.1556C96.8545 15.353 96.5544 15.6217 96.3203 15.944C96.0803 16.2812 95.9061 16.6606 95.8068 17.0624C95.5869 17.8973 95.5869 18.7751 95.8068 19.6101C95.9061 20.0118 96.0803 20.3912 96.3203 20.7284C96.5533 21.0565 96.8534 21.3313 97.2005 21.5348C97.5858 21.7545 98.0244 21.8631 98.4677 21.8488L98.4656 21.8468ZM104.148 13.3604H105.816V10.3542H108.016V13.3445H109.996V14.9762H108.019V20.2919C108.021 20.494 108.033 20.696 108.056 20.8969C108.074 21.0438 108.118 21.1865 108.185 21.3185C108.262 21.4321 108.37 21.521 108.497 21.5747C108.685 21.6407 108.884 21.6718 109.083 21.6664C109.236 21.6696 109.389 21.6636 109.542 21.6484C109.696 21.6328 109.849 21.6082 110 21.5747V23.2791C109.762 23.316 109.524 23.3339 109.285 23.3529C109.048 23.3839 108.809 23.3962 108.571 23.3897C108.1 23.4043 107.629 23.3485 107.175 23.2243C106.865 23.1342 106.582 22.9708 106.349 22.7478C106.149 22.5246 106.012 22.2527 105.951 21.9594C105.875 21.5984 105.832 21.2315 105.822 20.863V14.9971H104.151V13.3654L104.148 13.3604Z" fill="black"/>
<path d="M26.3448 9.56882H16.2798L13.1814 0L10.069 9.56882L0 9.55087L8.13992 15.4716L5.02352 25.0404L13.1634 19.1197L21.3033 25.0404L18.2049 15.4716L26.3448 9.56882Z" fill="#00B67A"/>
<path d="M18.9018 17.6335L18.2039 15.4706L13.1814 19.1187L18.9018 17.6335Z" fill="#005128"/>
</g>
<defs>
<clipPath id="clip0_38_29">
<rect width="110" height="27" fill="white"/>
</clipPath>
</defs>
</svg>
